:FULLY-SPECIFIED
:FORCE-ALL-JOINTS-BE-3DOF
:DEGREES
510
root -4.38423 14.8355 -41.4329 356.069 -6.77493 359.4
lfemur -31.3699 21.1252 -20.1747
ltibia 64.9374 0 0
lfoot -24.762 28.5425 0
ltoes -5.6407 0 0
rfemur -34.365 -11.1525 12.0225
rtibia 72.2548 0 0
rfoot -6.02464 -9.2953 0
rtoes 11.7567 0 0
lowerback 16.4315 0.0296059 -7.11839
upperback -0.274126 -1.07145 2.94407
thorax -9.33636 -0.0985531 7.55577
lowerneck 3.78983 -14.5855 -15.559
upperneck 2.14338 -20.5868 17.4236
head 3.68739 -10.5228 6.75967
lclavicle 1.33289e-14 -4.84837e-16 0
lhumerus -25.4933 -45.0362 94.6558
lradius 90.394 0 0
lwrist 45.117 0 0
lhand -8.06015 45.6435 0
lfingers 7.12502 0 0
lthumb 17.8472 74.7934 0
rclavicle 1.33289e-14 -4.84837e-16 0
rhumerus 45.3627 19.343 -34.3891
rradius 86.0993 0 0
rwrist -19.4103 0 0
rhand -4.48101 -19.7499 0
rfingers 7.12502 0 0
rthumb 21.2104 -47.6037 0
511
root -4.46881 14.8209 -41.4672 355.592 -9.38945 359.932
lfemur -29.9591 20.5809 -19.4644
ltibia 64.4804 0 0
lfoot -24.5543 28.3465 0
ltoes -6.52119 0 0
rfemur -35.1176 -11.6944 11.8468
rtibia 72.0198 0 0
rfoot -5.98956 -8.45037 0
rtoes 11.5645 0 0
lowerback 16.4618 0.121226 -7.16522
upperback -0.237523 -0.971002 2.84895
thorax -9.33159 -0.0530112 7.4527
lowerneck 3.56108 -14.4523 -15.4727
upperneck 2.41509 -20.3839 17.1199
head 3.73124 -10.4107 6.65686
lclavicle 1.34289e-14 -6.3029e-16 0
lhumerus -27.4436 -43.6962 94.8467
lradius 90.9717 0 0
lwrist 46.488 0 0
lhand -8.2735 45.9271 0
lfingers 7.12502 0 0
lthumb 17.6419 75.095 0
rclavicle 1.34289e-14 -6.3029e-16 0
rhumerus 43.7975 18.6303 -35.3665
rradius 84.4382 0 0
rwrist -18.695 0 0
rhand -5.37899 -19.83 0
rfingers 7.12502 0 0
rthumb 20.3481 -47.7723 0
512
root -4.55338 14.8063 -41.5014 355.114 -12.004 360.464
lfemur -28.5483 20.0366 -18.754
ltibia 64.0233 0 0
lfoot -24.3466 28.1505 0
ltoes -7.40167 0 0
rfemur -35.8702 -12.2362 11.6711
rtibia 71.7849 0 0
rfoot -5.95449 -7.60544 0
rtoes 11.3724 0 0
lowerback 16.4921 0.212845 -7.21206
upperback -0.20092 -0.870549 2.75383
thorax -9.32681 -0.00746932 7.34963
lowerneck 3.33233 -14.319 -15.3865
upperneck 2.6868 -20.1809 16.8161
head 3.7751 -10.2987 6.55405
lclavicle 1.35289e-14 -7.75742e-16 0
lhumerus -29.3939 -42.3561 95.0376
lradius 91.5494 0 0
lwrist 47.8589 0 0
lhand -8.48685 46.2108 0
lfingers 7.12502 0 0
lthumb 17.4366 75.3965 0
rclavicle 1.35289e-14 -7.75742e-16 0
rhumerus 42.2324 17.9176 -36.344
rradius 82.7772 0 0
rwrist -17.9797 0 0
rhand -6.27698 -19.9101 0
rfingers 7.12502 0 0
rthumb 19.4858 -47.941 0
513
root -4.63795 14.7917 -41.5356 354.637 -14.6185 360.996
lfemur -27.1375 19.4923 -18.0436
ltibia 63.5663 0 0
lfoot -24.1389 27.9545 0
ltoes -8.28216 0 0
rfemur -36.6228 -12.7781 11.4954
rtibia 71.5499 0 0
rfoot -5.91942 -6.76051 0
rtoes 11.1802 0 0
lowerback 16.5224 0.304465 -7.2589
upperback -0.164318 -0.770096 2.65872
thorax -9.32204 0.0380726 7.24656
lowerneck 3.10358 -14.1857 -15.3003
upperneck 2.95851 -19.978 16.5124
head 3.81895 -10.1866 6.45124
lclavicle 1.36289e-14 -9.21194e-16 0
lhumerus -31.3442 -41.0161 95.2285
lradius 92.1271 0 0
lwrist 49.2299 0 0
lhand -8.7002 46.4944 0
lfingers 7.12502 0 0
lthumb 17.2312 75.6981 0
rclavicle 1.36289e-14 -9.21194e-16 0
rhumerus 40.6673 17.2049 -37.3215
rradius 81.1161 0 0
rwrist -17.2644 0 0
rhand -7.17496 -19.9902 0
rfingers 7.12502 0 0
rthumb 18.6234 -48.1097 0
514
root -4.72253 14.7772 -41.5698 354.16 -17.233 361.527
lfemur -25.7267 18.9479 -17.3332
ltibia 63.1093 0 0
lfoot -23.9311 27.7584 0
ltoes -9.16265 0 0
rfemur -37.3753 -13.3199 11.3197
rtibia 71.315 0 0
rfoot -5.88435 -5.91559 0
rtoes 10.9881 0 0
lowerback 16.5527 0.396085 -7.30573
upperback -0.127715 -0.669644 2.5636
thorax -9.31726 0.0836144 7.14349
lowerneck 2.87483 -14.0524 -15.214
upperneck 3.23022 -19.775 16.2086
head 3.8628 -10.0745 6.34842
lclavicle 1.37288e-14 -1.06665e-15 0
lhumerus -33.2945 -39.676 95.4194
lradius 92.7048 0 0
lwrist 50.6008 0 0
lhand -8.91356 46.778 0
lfingers 7.12502 0 0
lthumb 17.0259 75.9996 0
rclavicle 1.37288e-14 -1.06665e-15 0
rhumerus 39.1021 16.4922 -38.2989
rradius 79.4551 0 0
rwrist -16.549 0 0
rhand -8.07294 -20.0703 0
rfingers 7.12502 0 0
rthumb 17.7611 -48.2783 0
515
root -4.8071 14.7626 -41.604 353.683 -19.8475 362.059
lfemur -24.316 18.4036 -16.6228
ltibia 62.6523 0 0
lfoot -23.7234 27.5624 0
ltoes -10.0431 0 0
rfemur -38.1279 -13.8618 11.144
rtibia 71.08 0 0
rfoot -5.84928 -5.07066 0
rtoes 10.7959 0 0
lowerback 16.583 0.487705 -7.35257
upperback -0.0911126 -0.569191 2.46848
thorax -9.31249 0.129156 7.04042
lowerneck 2.64608 -13.9191 -15.1278
upperneck 3.50193 -19.5721 15.9049
head 3.90665 -9.96248 6.24561
lclavicle 1.38288e-14 -1.2121e-15 0
lhumerus -35.2448 -38.336 95.6103
lradius 93.2825 0 0
lwrist 51.9718 0 0
lhand -9.12691 47.0616 0
lfingers 7.12502 0 0
lthumb 16.8205 76.3012 0
rclavicle 1.38288e-14 -1.2121e-15 0
rhumerus 37.537 15.7794 -39.2764
rradius 77.794 0 0
rwrist -15.8337 0 0
rhand -8.97092 -20.1504 0
rfingers 7.12502 0 0
rthumb 16.8987 -48.447 0
516
root -4.89167 14.748 -41.6382 353.205 -22.462 362.591
lfemur -22.9052 17.8593 -15.9124
ltibia 62.1952 0 0
lfoot -23.5157 27.3664 0
ltoes -10.9236 0 0
rfemur -38.8805 -14.4036 10.9683
rtibia 70.8451 0 0
rfoot -5.81421 -4.22573 0
rtoes 10.6037 0 0
lowerback 16.6133 0.579324 -7.39941
upperback -0.05451 -0.468738 2.37336
thorax -9.30771 0.174698 6.93735
lowerneck 2.41733 -13.7858 -15.0416
upperneck 3.77364 -19.3691 15.6011
head 3.95051 -9.85042 6.1428
lclavicle 1.39288e-14 -1.35755e-15 0
lhumerus -37.1951 -36.9959 95.8012
lradius 93.8602 0 0
lwrist 53.3427 0 0
lhand -9.34026 47.3453 0
lfingers 7.12502 0 0
lthumb 16.6152 76.6027 0
rclavicle 1.39288e-14 -1.35755e-15 0
rhumerus 35.9718 15.0667 -40.2539
rradius 76.133 0 0
rwrist -15.1184 0 0
rhand -9.86891 -20.2305 0
rfingers 7.12502 0 0
rthumb 16.0364 -48.6157 0
517
root -4.97625 14.7334 -41.6725 352.728 -25.0766 363.123
lfemur -21.4944 17.3149 -15.202
ltibia 61.7382 0 0
lfoot -23.308 27.1704 0
ltoes -11.8041 0 0
rfemur -39.6331 -14.9455 10.7927
rtibia 70.6101 0 0
rfoot -5.77913 -3.3808 0
rtoes 10.4116 0 0
lowerback 16.6436 0.670944 -7.44624
upperback -0.0179074 -0.368286 2.27824
thorax -9.30294 0.22024 6.83428
lowerneck 2.18858 -13.6526 -14.9553
upperneck 4.04535 -19.1662 15.2974
head 3.99436 -9.73836 6.03999
lclavicle 1.40288e-14 -1.503e-15 0
lhumerus -39.1454 -35.6559 95.9921
lradius 94.4379 0 0
lwrist 54.7137 0 0
lhand -9.55361 47.6289 0
lfingers 7.12502 0 0
lthumb 16.4099 76.9043 0
rclavicle 1.40288e-14 -1.503e-15 0
rhumerus 34.4067 14.354 -41.2313
rradius 74.4719 0 0
rwrist -14.4031 0 0
rhand -10.7669 -20.3106 0
rfingers 7.12502 0 0
rthumb 15.1741 -48.7843 0
518
root -5.06082 14.7188 -41.7067 352.251 -27.6911 363.655
lfemur -20.0836 16.7706 -14.4916
ltibia 61.2812 0 0
lfoot -23.1003 26.9744 0
ltoes -12.6846 0 0
rfemur -40.3857 -15.4873 10.617
rtibia 70.3752 0 0
rfoot -5.74406 -2.53587 0
rtoes 10.2194 0 0
lowerback 16.6739 0.762564 -7.49308
upperback 0.0186952 -0.267833 2.18312
thorax -9.29816 0.265782 6.73121
lowerneck 1.95983 -13.5193 -14.8691
upperneck 4.31706 -18.9633 14.9936
head 4.03821 -9.6263 5.93718
lclavicle 1.41288e-14 -1.64845e-15 0
lhumerus -41.0957 -34.3158 96.183
lradius 95.0156 0 0
lwrist 56.0846 0 0
lhand -9.76696 47.9125 0
lfingers 7.12502 0 0
lthumb 16.2045 77.2058 0
rclavicle 1.41288e-14 -1.64845e-15 0
rhumerus 32.8416 13.6413 -42.2088
rradius 72.8109 0 0
rwrist -13.6878 0 0
rhand -11.6649 -20.3907 0
rfingers 7.12502 0 0
rthumb 14.3117 -48.953 0
